Coordinates
version=1
nRows=32
nColumns=12
inDegrees=yes

Units are S.I. units (second, meters, Newtons, ...)
Angles are in degrees

endheader
time	SC_y	SC_z	SC_x	AC_y	AC_z	AC_x	GH_y	GH_z	GH_yy	EL_x	PS_y
       0.0              -21.18          6.443          58.84          57.17         -9.599           15.0         -168.2           19.5          85.62          99.64          34.79
   0.02993              -21.19          6.442          58.84          57.17         -9.599           15.0         -168.1          19.51           85.6          99.62          34.79
   0.05985              -21.19          6.441          58.84          57.17           -9.6           15.0         -168.1          19.51          85.57          99.61          34.79
   0.08978               -21.2          6.439          58.83          57.16           -9.6           15.0         -168.0          19.51          85.54           99.6          34.79
    0.1197               -21.2          6.438          58.83          57.16         -9.601          15.01         -168.0          19.52          85.51          99.58          34.78
    0.1496               -21.2          6.436          58.83          57.16         -9.602          15.01         -167.9          19.52          85.47          99.56          34.78
    0.1796              -21.21          6.434          58.83          57.16         -9.603          15.01         -167.9          19.52          85.44          99.55          34.78
    0.2095              -21.21          6.433          58.83          57.16         -9.603          15.01         -167.8          19.53           85.4          99.53          34.78
    0.2394              -21.22          6.431          58.83          57.15         -9.604          15.01         -167.7          19.53          85.36          99.51          34.78
    0.2693              -21.22          6.428          58.82          57.15         -9.605          15.01         -167.6          19.54          85.31          99.49          34.77
    0.2993              -21.23          6.426          58.82          57.15         -9.606          15.01         -167.6          19.54          85.26          99.46          34.77
    0.3292              -21.24          6.424          58.82          57.14         -9.607          15.01         -167.5          19.55          85.21          99.44          34.77
    0.3591              -21.24          6.421          58.82          57.14         -9.608          15.01         -167.4          19.55          85.15          99.41          34.77
     0.389              -21.25          6.418          58.81          57.14          -9.61          15.01         -167.3          19.56          85.09          99.38          34.76
     0.419              -21.26          6.415          58.81          57.13         -9.611          15.01         -167.2          19.57          85.03          99.35          34.76
    0.4489              -21.27          6.412          58.81          57.13         -9.613          15.01         -167.0          19.58          84.96          99.32          34.76
    0.4788              -21.28          6.408           58.8          57.12         -9.614          15.02         -166.9          19.58          84.88          99.28          34.75
    0.5087              -21.29          6.404           58.8          57.12         -9.616          15.02         -166.8          19.59           84.8          99.24          34.75
    0.5387               -21.3          6.399          58.79          57.11         -9.618          15.02         -166.6           19.6          84.71           99.2          34.75
    0.5686              -21.31          6.395          58.79          57.11          -9.62          15.02         -166.5          19.61           84.6          99.15          34.74
    0.5985              -21.33          6.389          58.78           57.1         -9.622          15.02         -166.3          19.63          84.49           99.1          34.73
    0.6285              -21.34          6.384          58.78          57.09         -9.625          15.03         -166.1          19.64          84.37          99.04          34.73
    0.6584              -21.36          6.377          58.77          57.08         -9.628          15.03         -165.8          19.65          84.24          98.98          34.72
    0.6883              -21.38           6.37          58.76          57.07         -9.631          15.03         -165.6          19.67          84.09           98.9          34.72
    0.7182               -21.4          6.362          58.76          57.06         -9.634          15.03         -165.3          19.69          83.93          98.83          34.71
    0.7482              -21.42          6.353          58.75          57.05         -9.638          15.04         -165.0          19.71          83.74          98.74           34.7
    0.7781              -21.45          6.344          58.74          57.04         -9.642          15.04         -164.7          19.73          83.54          98.64          34.69
     0.808              -21.48          6.332          58.73          57.02         -9.647          15.04         -164.3          19.75           83.3          98.53          34.68
    0.8379              -21.51           6.32          58.71          57.01         -9.653          15.05         -163.8          19.78          83.04           98.4          34.66
    0.8679              -21.55          6.306           58.7          56.99         -9.659          15.05         -163.3          19.81          82.74          98.26          34.65
    0.8978              -21.59          6.289          58.68          56.97         -9.666          15.06         -162.8          19.85           82.4           98.1          34.63
    0.9277              -21.64          6.271          58.66          56.94         -9.674          15.07         -162.1          19.89          82.01          97.91          34.61
